<?xml version="1.0" encoding="UTF-8" standalone="no"?>
<!DOCTYPE svg PUBLIC "-//W3C//DTD SVG 1.1//EN"
 "http://www.w3.org/Graphics/SVG/1.1/DTD/svg11.dtd">
<!-- Generated by graphviz version 13.0.0 (20250608.1624)
 -->
<!-- Title: G Pages: 1 -->
<svg width="2743pt" height="737pt"
 viewBox="0.00 0.00 2743.00 737.00" xmlns="http://www.w3.org/2000/svg" xmlns:xlink="http://www.w3.org/1999/xlink">
<g id="graph0" class="graph" transform="scale(1 1) rotate(0) translate(4 733)">
<title>G</title>
<polygon fill="white" stroke="none" points="-4,4 -4,-733 2739,-733 2739,4 -4,4"/>
<g id="clust1" class="cluster">
<title>cluster_module.ecs</title>
<polygon fill="none" stroke="black" points="1203,-8 1203,-319 2727,-319 2727,-8 1203,-8"/>
<text xml:space="preserve" text-anchor="middle" x="1965" y="-301.7" font-family="sans-serif" font-size="14.00">module.ecs</text>
</g>
<g id="clust2" class="cluster">
<title>cluster_module.rds</title>
<polygon fill="none" stroke="black" points="399.25,-327 399.25,-510 1383.5,-510 1383.5,-327 399.25,-327"/>
<text xml:space="preserve" text-anchor="middle" x="891.38" y="-492.7" font-family="sans-serif" font-size="14.00">module.rds</text>
</g>
<g id="clust3" class="cluster">
<title>cluster_module.vpc</title>
<polygon fill="none" stroke="black" points="8,-518 8,-721 1445,-721 1445,-518 8,-518"/>
<text xml:space="preserve" text-anchor="middle" x="726.5" y="-703.7" font-family="sans-serif" font-size="14.00">module.vpc</text>
</g>
<!-- module.ecs.aws_autoscaling_group.dev&#45;asg -->
<g id="node1" class="node">
<title>module.ecs.aws_autoscaling_group.dev&#45;asg</title>
<polygon fill="none" stroke="black" points="1927.25,-288 1717.75,-288 1717.75,-252 1927.25,-252 1927.25,-288"/>
<text xml:space="preserve" text-anchor="middle" x="1822.5" y="-264.2" font-family="sans-serif" font-size="14.00">aws_autoscaling_group.dev&#45;asg</text>
</g>
<!-- module.ecs.aws_launch_template.lt -->
<g id="node7" class="node">
<title>module.ecs.aws_launch_template.lt</title>
<polygon fill="none" stroke="black" points="1656.25,-288 1498.5,-288 1498.5,-252 1656.25,-252 1656.25,-288"/>
<text xml:space="preserve" text-anchor="middle" x="1577.38" y="-264.2" font-family="sans-serif" font-size="14.00">aws_launch_template.lt</text>
</g>
<!-- module.ecs.aws_autoscaling_group.dev&#45;asg&#45;&gt;module.ecs.aws_launch_template.lt -->
<g id="edge1" class="edge">
<title>module.ecs.aws_autoscaling_group.dev&#45;asg&#45;&gt;module.ecs.aws_launch_template.lt</title>
<path fill="none" stroke="black" d="M1717.34,-270C1700.95,-270 1684.13,-270 1668.11,-270"/>
<polygon fill="black" stroke="black" points="1668.11,-266.5 1658.11,-270 1668.11,-273.5 1668.11,-266.5"/>
</g>
<!-- module.vpc.aws_subnet.Dev&#45;private -->
<g id="node24" class="node">
<title>module.vpc.aws_subnet.Dev&#45;private</title>
<polygon fill="none" stroke="black" points="630.62,-562 469.88,-562 469.88,-526 630.62,-526 630.62,-562"/>
<text xml:space="preserve" text-anchor="middle" x="550.25" y="-538.2" font-family="sans-serif" font-size="14.00">aws_subnet.Dev&#45;private</text>
</g>
<!-- module.ecs.aws_autoscaling_group.dev&#45;asg&#45;&gt;module.vpc.aws_subnet.Dev&#45;private -->
<g id="edge2" class="edge">
<title>module.ecs.aws_autoscaling_group.dev&#45;asg&#45;&gt;module.vpc.aws_subnet.Dev&#45;private</title>
<path fill="none" stroke="black" d="M1801.93,-288.43C1749.32,-336.6 1598.46,-465.81 1445,-514 1370.05,-537.54 854.94,-542.61 642.52,-543.7"/>
<polygon fill="black" stroke="black" points="642.61,-540.2 632.62,-543.75 642.64,-547.2 642.61,-540.2"/>
</g>
<!-- module.ecs.aws_ecs_capacity_provider.ec2_capacity_provider -->
<g id="node2" class="node">
<title>module.ecs.aws_ecs_capacity_provider.ec2_capacity_provider</title>
<polygon fill="none" stroke="black" points="2283.75,-193 1963.25,-193 1963.25,-157 2283.75,-157 2283.75,-193"/>
<text xml:space="preserve" text-anchor="middle" x="2123.5" y="-169.2" font-family="sans-serif" font-size="14.00">aws_ecs_capacity_provider.ec2_capacity_provider</text>
</g>
<!-- module.ecs.aws_ecs_capacity_provider.ec2_capacity_provider&#45;&gt;module.ecs.aws_autoscaling_group.dev&#45;asg -->
<g id="edge3" class="edge">
<title>module.ecs.aws_ecs_capacity_provider.ec2_capacity_provider&#45;&gt;module.ecs.aws_autoscaling_group.dev&#45;asg</title>
<path fill="none" stroke="black" d="M2064.5,-193.43C2015.27,-209.07 1944.53,-231.55 1892.42,-248.1"/>
<polygon fill="black" stroke="black" points="1891.51,-244.72 1883.04,-251.08 1893.63,-251.39 1891.51,-244.72"/>
</g>
<!-- module.ecs.aws_ecs_cluster.Dev -->
<g id="node3" class="node">
<title>module.ecs.aws_ecs_cluster.Dev</title>
<polygon fill="none" stroke="black" points="1649.12,-52 1505.62,-52 1505.62,-16 1649.12,-16 1649.12,-52"/>
<text xml:space="preserve" text-anchor="middle" x="1577.38" y="-28.2" font-family="sans-serif" font-size="14.00">aws_ecs_cluster.Dev</text>
</g>
<!-- module.ecs.aws_ecs_cluster_capacity_providers.cluster_capacity_providers -->
<g id="node4" class="node">
<title>module.ecs.aws_ecs_cluster_capacity_providers.cluster_capacity_providers</title>
<polygon fill="none" stroke="black" points="2719,-125 2319.75,-125 2319.75,-89 2719,-89 2719,-125"/>
<text xml:space="preserve" text-anchor="middle" x="2519.38" y="-101.2" font-family="sans-serif" font-size="14.00">aws_ecs_cluster_capacity_providers.cluster_capacity_providers</text>
</g>
<!-- module.ecs.aws_ecs_cluster_capacity_providers.cluster_capacity_providers&#45;&gt;module.ecs.aws_ecs_capacity_provider.ec2_capacity_provider -->
<g id="edge4" class="edge">
<title>module.ecs.aws_ecs_cluster_capacity_providers.cluster_capacity_providers&#45;&gt;module.ecs.aws_ecs_capacity_provider.ec2_capacity_provider</title>
<path fill="none" stroke="black" d="M2411.27,-125.49C2359.16,-134.49 2296.38,-145.33 2242.86,-154.57"/>
<polygon fill="black" stroke="black" points="2242.34,-151.1 2233.08,-156.25 2243.53,-158 2242.34,-151.1"/>
</g>
<!-- module.ecs.aws_ecs_cluster_capacity_providers.cluster_capacity_providers&#45;&gt;module.ecs.aws_ecs_cluster.Dev -->
<g id="edge5" class="edge">
<title>module.ecs.aws_ecs_cluster_capacity_providers.cluster_capacity_providers&#45;&gt;module.ecs.aws_ecs_cluster.Dev</title>
<path fill="none" stroke="black" d="M2329.49,-88.51C2213.5,-77.54 2061.87,-63.89 1927.25,-54 1836.26,-47.31 1731.79,-41.58 1661.07,-37.99"/>
<polygon fill="black" stroke="black" points="1661.25,-34.5 1651.09,-37.49 1660.9,-41.49 1661.25,-34.5"/>
</g>
<!-- module.ecs.aws_ecs_service.service -->
<g id="node5" class="node">
<title>module.ecs.aws_ecs_service.service</title>
<polygon fill="none" stroke="black" points="1905.12,-99 1739.88,-99 1739.88,-63 1905.12,-63 1905.12,-99"/>
<text xml:space="preserve" text-anchor="middle" x="1822.5" y="-75.2" font-family="sans-serif" font-size="14.00">aws_ecs_service.service</text>
</g>
<!-- module.ecs.aws_ecs_service.service&#45;&gt;module.ecs.aws_ecs_cluster.Dev -->
<g id="edge6" class="edge">
<title>module.ecs.aws_ecs_service.service&#45;&gt;module.ecs.aws_ecs_cluster.Dev</title>
<path fill="none" stroke="black" d="M1739.53,-65.15C1714.07,-60.23 1686.01,-54.81 1660.54,-49.88"/>
<polygon fill="black" stroke="black" points="1661.39,-46.48 1650.91,-48.02 1660.06,-53.36 1661.39,-46.48"/>
</g>
<!-- module.ecs.aws_ecs_task_definition.service -->
<g id="node6" class="node">
<title>module.ecs.aws_ecs_task_definition.service</title>
<polygon fill="none" stroke="black" points="1681.75,-234 1473,-234 1473,-198 1681.75,-198 1681.75,-234"/>
<text xml:space="preserve" text-anchor="middle" x="1577.38" y="-210.2" font-family="sans-serif" font-size="14.00">aws_ecs_task_definition.service</text>
</g>
<!-- module.ecs.aws_ecs_service.service&#45;&gt;module.ecs.aws_ecs_task_definition.service -->
<g id="edge7" class="edge">
<title>module.ecs.aws_ecs_service.service&#45;&gt;module.ecs.aws_ecs_task_definition.service</title>
<path fill="none" stroke="black" d="M1745.69,-99.44C1735.59,-104.07 1725.92,-109.83 1717.75,-117 1690.87,-140.61 1709.54,-166.47 1681.75,-189 1680.62,-189.92 1679.45,-190.81 1678.26,-191.67"/>
<polygon fill="black" stroke="black" points="1676.59,-188.59 1669.99,-196.88 1680.32,-194.51 1676.59,-188.59"/>
</g>
<!-- module.ecs.aws_lb_target_group.wp_tg -->
<g id="node10" class="node">
<title>module.ecs.aws_lb_target_group.wp_tg</title>
<polygon fill="none" stroke="black" points="1668.25,-126 1486.5,-126 1486.5,-90 1668.25,-90 1668.25,-126"/>
<text xml:space="preserve" text-anchor="middle" x="1577.38" y="-102.2" font-family="sans-serif" font-size="14.00">aws_lb_target_group.wp_tg</text>
</g>
<!-- module.ecs.aws_ecs_service.service&#45;&gt;module.ecs.aws_lb_target_group.wp_tg -->
<g id="edge8" class="edge">
<title>module.ecs.aws_ecs_service.service&#45;&gt;module.ecs.aws_lb_target_group.wp_tg</title>
<path fill="none" stroke="black" d="M1739.53,-90.1C1720.31,-92.24 1699.61,-94.54 1679.66,-96.75"/>
<polygon fill="black" stroke="black" points="1679.4,-93.26 1669.84,-97.84 1680.17,-100.22 1679.4,-93.26"/>
</g>
<!-- module.ecs.aws_security_group.lt_sg -->
<g id="node11" class="node">
<title>module.ecs.aws_security_group.lt_sg</title>
<polygon fill="none" stroke="black" points="1379.25,-185 1211,-185 1211,-149 1379.25,-149 1379.25,-185"/>
<text xml:space="preserve" text-anchor="middle" x="1295.12" y="-161.2" font-family="sans-serif" font-size="14.00">aws_security_group.lt_sg</text>
</g>
<!-- module.ecs.aws_ecs_service.service&#45;&gt;module.ecs.aws_security_group.lt_sg -->
<g id="edge9" class="edge">
<title>module.ecs.aws_ecs_service.service&#45;&gt;module.ecs.aws_security_group.lt_sg</title>
<path fill="none" stroke="black" d="M1739.7,-70.75C1668.33,-64.22 1562.47,-60.4 1473,-81 1421.67,-92.82 1367.97,-121.62 1333.4,-142.65"/>
<polygon fill="black" stroke="black" points="1331.69,-139.59 1325.03,-147.83 1335.37,-145.54 1331.69,-139.59"/>
</g>
<!-- module.rds.aws_db_instance.sql&#45;db -->
<g id="node14" class="node">
<title>module.rds.aws_db_instance.sql&#45;db</title>
<polygon fill="none" stroke="black" points="1375.5,-398 1214.75,-398 1214.75,-362 1375.5,-362 1375.5,-398"/>
<text xml:space="preserve" text-anchor="middle" x="1295.12" y="-374.2" font-family="sans-serif" font-size="14.00">aws_db_instance.sql&#45;db</text>
</g>
<!-- module.ecs.aws_ecs_task_definition.service&#45;&gt;module.rds.aws_db_instance.sql&#45;db -->
<g id="edge10" class="edge">
<title>module.ecs.aws_ecs_task_definition.service&#45;&gt;module.rds.aws_db_instance.sql&#45;db</title>
<path fill="none" stroke="black" d="M1484.57,-234.3C1480.44,-236.85 1476.55,-239.73 1473,-243 1445.3,-268.53 1471.25,-295.98 1445,-323 1429.08,-339.39 1407.95,-351.13 1386.62,-359.53"/>
<polygon fill="black" stroke="black" points="1385.41,-356.24 1377.23,-362.98 1387.83,-362.81 1385.41,-356.24"/>
</g>
<!-- module.ecs.aws_launch_template.lt&#45;&gt;module.ecs.aws_security_group.lt_sg -->
<g id="edge11" class="edge">
<title>module.ecs.aws_launch_template.lt&#45;&gt;module.ecs.aws_security_group.lt_sg</title>
<path fill="none" stroke="black" d="M1500.33,-251.54C1491.06,-248.88 1481.77,-246.01 1473,-243 1428.74,-227.81 1379.98,-206.5 1344.89,-190.31"/>
<polygon fill="black" stroke="black" points="1346.37,-187.14 1335.83,-186.1 1343.42,-193.49 1346.37,-187.14"/>
</g>
<!-- module.ecs.aws_lb.wordpress_alb -->
<g id="node8" class="node">
<title>module.ecs.aws_lb.wordpress_alb</title>
<polygon fill="none" stroke="black" points="1652.12,-180 1502.62,-180 1502.62,-144 1652.12,-144 1652.12,-180"/>
<text xml:space="preserve" text-anchor="middle" x="1577.38" y="-156.2" font-family="sans-serif" font-size="14.00">aws_lb.wordpress_alb</text>
</g>
<!-- module.ecs.aws_lb.wordpress_alb&#45;&gt;module.ecs.aws_security_group.lt_sg -->
<g id="edge12" class="edge">
<title>module.ecs.aws_lb.wordpress_alb&#45;&gt;module.ecs.aws_security_group.lt_sg</title>
<path fill="none" stroke="black" d="M1502.38,-163.32C1468.21,-163.93 1427.23,-164.66 1390.84,-165.31"/>
<polygon fill="black" stroke="black" points="1391.15,-161.8 1381.22,-165.48 1391.28,-168.8 1391.15,-161.8"/>
</g>
<!-- module.vpc.aws_subnet.Dev&#45;public -->
<g id="node25" class="node">
<title>module.vpc.aws_subnet.Dev&#45;public</title>
<polygon fill="none" stroke="black" points="349.12,-582 193.62,-582 193.62,-546 349.12,-546 349.12,-582"/>
<text xml:space="preserve" text-anchor="middle" x="271.38" y="-558.2" font-family="sans-serif" font-size="14.00">aws_subnet.Dev&#45;public</text>
</g>
<!-- module.ecs.aws_lb.wordpress_alb&#45;&gt;module.vpc.aws_subnet.Dev&#45;public -->
<g id="edge13" class="edge">
<title>module.ecs.aws_lb.wordpress_alb&#45;&gt;module.vpc.aws_subnet.Dev&#45;public</title>
<path fill="none" stroke="black" d="M1502.33,-173.92C1491.88,-177.66 1481.74,-182.56 1473,-189 1454.03,-202.97 1465.09,-221.7 1445,-234 1047.22,-477.63 788,-65.21 399.25,-323 324.12,-372.82 290.53,-482.1 278.27,-534.64"/>
<polygon fill="black" stroke="black" points="274.86,-533.84 276.11,-544.36 281.7,-535.35 274.86,-533.84"/>
</g>
<!-- module.ecs.aws_lb_listener.http -->
<g id="node9" class="node">
<title>module.ecs.aws_lb_listener.http</title>
<polygon fill="none" stroke="black" points="1890.12,-162 1754.88,-162 1754.88,-126 1890.12,-126 1890.12,-162"/>
<text xml:space="preserve" text-anchor="middle" x="1822.5" y="-138.2" font-family="sans-serif" font-size="14.00">aws_lb_listener.http</text>
</g>
<!-- module.ecs.aws_lb_listener.http&#45;&gt;module.ecs.aws_lb.wordpress_alb -->
<g id="edge14" class="edge">
<title>module.ecs.aws_lb_listener.http&#45;&gt;module.ecs.aws_lb.wordpress_alb</title>
<path fill="none" stroke="black" d="M1754.42,-148.97C1726.38,-151.04 1693.46,-153.48 1663.72,-155.68"/>
<polygon fill="black" stroke="black" points="1663.72,-152.17 1654.01,-156.4 1664.24,-159.15 1663.72,-152.17"/>
</g>
<!-- module.ecs.aws_lb_listener.http&#45;&gt;module.ecs.aws_lb_target_group.wp_tg -->
<g id="edge15" class="edge">
<title>module.ecs.aws_lb_listener.http&#45;&gt;module.ecs.aws_lb_target_group.wp_tg</title>
<path fill="none" stroke="black" d="M1754.42,-134.07C1731.28,-130.64 1704.82,-126.72 1679.57,-122.98"/>
<polygon fill="black" stroke="black" points="1680.35,-119.56 1669.95,-121.56 1679.32,-126.49 1680.35,-119.56"/>
</g>
<!-- module.vpc.aws_vpc.dev&#45;vpc -->
<g id="node26" class="node">
<title>module.vpc.aws_vpc.dev&#45;vpc</title>
<polygon fill="none" stroke="black" points="135.5,-562 16,-562 16,-526 135.5,-526 135.5,-562"/>
<text xml:space="preserve" text-anchor="middle" x="75.75" y="-538.2" font-family="sans-serif" font-size="14.00">aws_vpc.dev&#45;vpc</text>
</g>
<!-- module.ecs.aws_lb_target_group.wp_tg&#45;&gt;module.vpc.aws_vpc.dev&#45;vpc -->
<g id="edge16" class="edge">
<title>module.ecs.aws_lb_target_group.wp_tg&#45;&gt;module.vpc.aws_vpc.dev&#45;vpc</title>
<path fill="none" stroke="black" d="M1486.45,-125.95C1481.67,-128.57 1477.14,-131.57 1473,-135 1450.64,-153.51 1469.14,-177.88 1445,-194 1348.64,-258.35 1040.12,-220 924.25,-220 924.25,-220 924.25,-220 549.25,-220 365.87,-220 309.09,-264.76 171.5,-386 130.47,-422.16 101.98,-480.51 87.58,-515.27"/>
<polygon fill="black" stroke="black" points="84.45,-513.68 83.97,-524.26 90.94,-516.29 84.45,-513.68"/>
</g>
<!-- module.ecs.aws_security_group.lt_sg&#45;&gt;module.vpc.aws_vpc.dev&#45;vpc -->
<g id="edge17" class="edge">
<title>module.ecs.aws_security_group.lt_sg&#45;&gt;module.vpc.aws_vpc.dev&#45;vpc</title>
<path fill="none" stroke="black" d="M1238.64,-148.59C1061.01,-93.45 498.86,51.28 171.5,-206 122.25,-244.7 91,-439.17 80.6,-514.31"/>
<polygon fill="black" stroke="black" points="77.13,-513.82 79.26,-524.2 84.07,-514.76 77.13,-513.82"/>
</g>
<!-- module.rds.data.aws_secretsmanager_secret.rds_secret -->
<g id="node12" class="node">
<title>module.rds.data.aws_secretsmanager_secret.rds_secret</title>
<polygon fill="none" stroke="black" points="693.25,-425 407.25,-425 407.25,-389 693.25,-389 693.25,-425"/>
<text xml:space="preserve" text-anchor="middle" x="550.25" y="-401.2" font-family="sans-serif" font-size="14.00">data.aws_secretsmanager_secret.rds_secret</text>
</g>
<!-- module.rds.data.aws_secretsmanager_secret_version.rds_secret_version -->
<g id="node13" class="node">
<title>module.rds.data.aws_secretsmanager_secret_version.rds_secret_version</title>
<polygon fill="none" stroke="black" points="1117.25,-425 729.25,-425 729.25,-389 1117.25,-389 1117.25,-425"/>
<text xml:space="preserve" text-anchor="middle" x="923.25" y="-401.2" font-family="sans-serif" font-size="14.00">data.aws_secretsmanager_secret_version.rds_secret_version</text>
</g>
<!-- module.rds.data.aws_secretsmanager_secret_version.rds_secret_version&#45;&gt;module.rds.data.aws_secretsmanager_secret.rds_secret -->
<g id="edge18" class="edge">
<title>module.rds.data.aws_secretsmanager_secret_version.rds_secret_version&#45;&gt;module.rds.data.aws_secretsmanager_secret.rds_secret</title>
<path fill="none" stroke="black" d="M728.87,-407C720.9,-407 712.94,-407 705.06,-407"/>
<polygon fill="black" stroke="black" points="705.09,-403.5 695.09,-407 705.09,-410.5 705.09,-403.5"/>
</g>
<!-- module.rds.aws_db_instance.sql&#45;db&#45;&gt;module.rds.data.aws_secretsmanager_secret_version.rds_secret_version -->
<g id="edge19" class="edge">
<title>module.rds.aws_db_instance.sql&#45;db&#45;&gt;module.rds.data.aws_secretsmanager_secret_version.rds_secret_version</title>
<path fill="none" stroke="black" d="M1214.32,-385.83C1188.69,-387.7 1159.03,-389.86 1128.66,-392.08"/>
<polygon fill="black" stroke="black" points="1128.67,-388.57 1118.96,-392.79 1129.18,-395.55 1128.67,-388.57"/>
</g>
<!-- module.rds.aws_db_subnet_group.default -->
<g id="node15" class="node">
<title>module.rds.aws_db_subnet_group.default</title>
<polygon fill="none" stroke="black" points="1021.62,-479 824.88,-479 824.88,-443 1021.62,-443 1021.62,-479"/>
<text xml:space="preserve" text-anchor="middle" x="923.25" y="-455.2" font-family="sans-serif" font-size="14.00">aws_db_subnet_group.default</text>
</g>
<!-- module.rds.aws_db_instance.sql&#45;db&#45;&gt;module.rds.aws_db_subnet_group.default -->
<g id="edge20" class="edge">
<title>module.rds.aws_db_instance.sql&#45;db&#45;&gt;module.rds.aws_db_subnet_group.default</title>
<path fill="none" stroke="black" d="M1241.69,-398.39C1206.79,-410.03 1159.73,-424.61 1117.25,-434 1090.25,-439.97 1060.81,-444.88 1033.25,-448.8"/>
<polygon fill="black" stroke="black" points="1032.9,-445.32 1023.48,-450.16 1033.86,-452.25 1032.9,-445.32"/>
</g>
<!-- module.rds.aws_security_group.db_sg -->
<g id="node16" class="node">
<title>module.rds.aws_security_group.db_sg</title>
<polygon fill="none" stroke="black" points="1011.5,-371 835,-371 835,-335 1011.5,-335 1011.5,-371"/>
<text xml:space="preserve" text-anchor="middle" x="923.25" y="-347.2" font-family="sans-serif" font-size="14.00">aws_security_group.db_sg</text>
</g>
<!-- module.rds.aws_db_instance.sql&#45;db&#45;&gt;module.rds.aws_security_group.db_sg -->
<g id="edge21" class="edge">
<title>module.rds.aws_db_instance.sql&#45;db&#45;&gt;module.rds.aws_security_group.db_sg</title>
<path fill="none" stroke="black" d="M1214.32,-374.17C1158.36,-370.09 1083.16,-364.6 1023.36,-360.23"/>
<polygon fill="black" stroke="black" points="1023.73,-356.75 1013.5,-359.52 1023.22,-363.73 1023.73,-356.75"/>
</g>
<!-- module.rds.aws_db_subnet_group.default&#45;&gt;module.vpc.aws_subnet.Dev&#45;private -->
<g id="edge22" class="edge">
<title>module.rds.aws_db_subnet_group.default&#45;&gt;module.vpc.aws_subnet.Dev&#45;private</title>
<path fill="none" stroke="black" d="M844.17,-479.46C799.94,-489.82 743.55,-502.87 693.25,-514 676.7,-517.66 659.05,-521.47 642.01,-525.1"/>
<polygon fill="black" stroke="black" points="641.45,-521.64 632.4,-527.14 642.91,-528.48 641.45,-521.64"/>
</g>
<!-- module.rds.aws_security_group.db_sg&#45;&gt;module.vpc.aws_vpc.dev&#45;vpc -->
<g id="edge23" class="edge">
<title>module.rds.aws_security_group.db_sg&#45;&gt;module.vpc.aws_vpc.dev&#45;vpc</title>
<path fill="none" stroke="black" d="M834.93,-346.57C729.68,-341.29 548.36,-340.17 399.25,-380 287.67,-409.8 170.01,-481.39 112.56,-519.37"/>
<polygon fill="black" stroke="black" points="110.84,-516.31 104.47,-524.77 114.73,-522.13 110.84,-516.31"/>
</g>
<!-- module.vpc.aws_eip.eip -->
<g id="node17" class="node">
<title>module.vpc.aws_eip.eip</title>
<polygon fill="none" stroke="black" points="315,-636 227.75,-636 227.75,-600 315,-600 315,-636"/>
<text xml:space="preserve" text-anchor="middle" x="271.38" y="-612.2" font-family="sans-serif" font-size="14.00">aws_eip.eip</text>
</g>
<!-- module.vpc.aws_internet_gateway.dev&#45;igw -->
<g id="node18" class="node">
<title>module.vpc.aws_internet_gateway.dev&#45;igw</title>
<polygon fill="none" stroke="black" points="371.25,-690 171.5,-690 171.5,-654 371.25,-654 371.25,-690"/>
<text xml:space="preserve" text-anchor="middle" x="271.38" y="-666.2" font-family="sans-serif" font-size="14.00">aws_internet_gateway.dev&#45;igw</text>
</g>
<!-- module.vpc.aws_internet_gateway.dev&#45;igw&#45;&gt;module.vpc.aws_vpc.dev&#45;vpc -->
<g id="edge24" class="edge">
<title>module.vpc.aws_internet_gateway.dev&#45;igw&#45;&gt;module.vpc.aws_vpc.dev&#45;vpc</title>
<path fill="none" stroke="black" d="M188.47,-653.56C182.56,-651.05 176.84,-648.21 171.5,-645 140.32,-626.23 112.89,-594.34 95.67,-571.41"/>
<polygon fill="black" stroke="black" points="98.55,-569.43 89.83,-563.42 92.9,-573.56 98.55,-569.43"/>
</g>
<!-- module.vpc.aws_nat_gateway.my&#45;nat -->
<g id="node19" class="node">
<title>module.vpc.aws_nat_gateway.my&#45;nat</title>
<polygon fill="none" stroke="black" points="634.75,-636 465.75,-636 465.75,-600 634.75,-600 634.75,-636"/>
<text xml:space="preserve" text-anchor="middle" x="550.25" y="-612.2" font-family="sans-serif" font-size="14.00">aws_nat_gateway.my&#45;nat</text>
</g>
<!-- module.vpc.aws_nat_gateway.my&#45;nat&#45;&gt;module.vpc.aws_eip.eip -->
<g id="edge25" class="edge">
<title>module.vpc.aws_nat_gateway.my&#45;nat&#45;&gt;module.vpc.aws_eip.eip</title>
<path fill="none" stroke="black" d="M465.43,-618C420.47,-618 366.36,-618 326.88,-618"/>
<polygon fill="black" stroke="black" points="326.9,-614.5 316.9,-618 326.9,-621.5 326.9,-614.5"/>
</g>
<!-- module.vpc.aws_nat_gateway.my&#45;nat&#45;&gt;module.vpc.aws_internet_gateway.dev&#45;igw -->
<g id="edge26" class="edge">
<title>module.vpc.aws_nat_gateway.my&#45;nat&#45;&gt;module.vpc.aws_internet_gateway.dev&#45;igw</title>
<path fill="none" stroke="black" d="M465.46,-632.6C443.86,-636.49 420.67,-640.79 399.25,-645 389.27,-646.96 378.86,-649.07 368.49,-651.21"/>
<polygon fill="black" stroke="black" points="367.83,-647.78 358.75,-653.24 369.25,-654.63 367.83,-647.78"/>
</g>
<!-- module.vpc.aws_nat_gateway.my&#45;nat&#45;&gt;module.vpc.aws_subnet.Dev&#45;public -->
<g id="edge27" class="edge">
<title>module.vpc.aws_nat_gateway.my&#45;nat&#45;&gt;module.vpc.aws_subnet.Dev&#45;public</title>
<path fill="none" stroke="black" d="M465.43,-601.65C432.25,-595.18 394.09,-587.74 360.51,-581.19"/>
<polygon fill="black" stroke="black" points="361.28,-577.77 350.79,-579.29 359.94,-584.64 361.28,-577.77"/>
</g>
<!-- module.vpc.aws_route_table.private_route -->
<g id="node20" class="node">
<title>module.vpc.aws_route_table.private_route</title>
<polygon fill="none" stroke="black" points="1022,-666 824.5,-666 824.5,-630 1022,-630 1022,-666"/>
<text xml:space="preserve" text-anchor="middle" x="923.25" y="-642.2" font-family="sans-serif" font-size="14.00">aws_route_table.private_route</text>
</g>
<!-- module.vpc.aws_route_table.private_route&#45;&gt;module.vpc.aws_nat_gateway.my&#45;nat -->
<g id="edge28" class="edge">
<title>module.vpc.aws_route_table.private_route&#45;&gt;module.vpc.aws_nat_gateway.my&#45;nat</title>
<path fill="none" stroke="black" d="M824.29,-640.08C769.27,-635.63 700.93,-630.1 646.38,-625.69"/>
<polygon fill="black" stroke="black" points="646.71,-622.21 636.47,-624.89 646.15,-629.19 646.71,-622.21"/>
</g>
<!-- module.vpc.aws_route_table.public_reoutes -->
<g id="node21" class="node">
<title>module.vpc.aws_route_table.public_reoutes</title>
<polygon fill="none" stroke="black" points="653.5,-690 447,-690 447,-654 653.5,-654 653.5,-690"/>
<text xml:space="preserve" text-anchor="middle" x="550.25" y="-666.2" font-family="sans-serif" font-size="14.00">aws_route_table.public_reoutes</text>
</g>
<!-- module.vpc.aws_route_table.public_reoutes&#45;&gt;module.vpc.aws_internet_gateway.dev&#45;igw -->
<g id="edge29" class="edge">
<title>module.vpc.aws_route_table.public_reoutes&#45;&gt;module.vpc.aws_internet_gateway.dev&#45;igw</title>
<path fill="none" stroke="black" d="M446.55,-672C425.9,-672 404.11,-672 383.21,-672"/>
<polygon fill="black" stroke="black" points="383.21,-668.5 373.21,-672 383.21,-675.5 383.21,-668.5"/>
</g>
<!-- module.vpc.aws_route_table_association.pub&#45;association -->
<g id="node22" class="node">
<title>module.vpc.aws_route_table_association.pub&#45;association</title>
<polygon fill="none" stroke="black" points="1067.38,-612 779.12,-612 779.12,-576 1067.38,-576 1067.38,-612"/>
<text xml:space="preserve" text-anchor="middle" x="923.25" y="-588.2" font-family="sans-serif" font-size="14.00">aws_route_table_association.pub&#45;association</text>
</g>
<!-- module.vpc.aws_route_table_association.pub&#45;association&#45;&gt;module.vpc.aws_route_table.public_reoutes -->
<g id="edge30" class="edge">
<title>module.vpc.aws_route_table_association.pub&#45;association&#45;&gt;module.vpc.aws_route_table.public_reoutes</title>
<path fill="none" stroke="black" d="M778.66,-606.74C761.72,-610.38 744.9,-615.05 729.25,-621 711.28,-627.84 711.05,-637.73 693.25,-645 684.22,-648.69 674.66,-651.88 664.94,-654.64"/>
<polygon fill="black" stroke="black" points="664.13,-651.23 655.37,-657.19 665.93,-658 664.13,-651.23"/>
</g>
<!-- module.vpc.aws_route_table_association.pub&#45;association&#45;&gt;module.vpc.aws_subnet.Dev&#45;public -->
<g id="edge31" class="edge">
<title>module.vpc.aws_route_table_association.pub&#45;association&#45;&gt;module.vpc.aws_subnet.Dev&#45;public</title>
<path fill="none" stroke="black" d="M778.77,-588.12C673.68,-583.71 527.58,-577.36 399.25,-571 386.81,-570.38 373.69,-569.7 360.78,-569"/>
<polygon fill="black" stroke="black" points="361.21,-565.52 351.04,-568.48 360.83,-572.51 361.21,-565.52"/>
</g>
<!-- module.vpc.aws_route_table_association.pvt&#45;association -->
<g id="node23" class="node">
<title>module.vpc.aws_route_table_association.pvt&#45;association</title>
<polygon fill="none" stroke="black" points="1437,-629 1153.25,-629 1153.25,-593 1437,-593 1437,-629"/>
<text xml:space="preserve" text-anchor="middle" x="1295.12" y="-605.2" font-family="sans-serif" font-size="14.00">aws_route_table_association.pvt&#45;association</text>
</g>
<!-- module.vpc.aws_route_table_association.pvt&#45;association&#45;&gt;module.vpc.aws_route_table.private_route -->
<g id="edge32" class="edge">
<title>module.vpc.aws_route_table_association.pvt&#45;association&#45;&gt;module.vpc.aws_route_table.private_route</title>
<path fill="none" stroke="black" d="M1152.97,-625.12C1113.49,-629.07 1071.19,-633.3 1033.83,-637.04"/>
<polygon fill="black" stroke="black" points="1033.51,-633.55 1023.91,-638.03 1034.21,-640.52 1033.51,-633.55"/>
</g>
<!-- module.vpc.aws_route_table_association.pvt&#45;association&#45;&gt;module.vpc.aws_subnet.Dev&#45;private -->
<g id="edge33" class="edge">
<title>module.vpc.aws_route_table_association.pvt&#45;association&#45;&gt;module.vpc.aws_subnet.Dev&#45;private</title>
<path fill="none" stroke="black" d="M1232.93,-592.52C1199.15,-583.14 1156.25,-572.58 1117.25,-567 1028.36,-554.27 778.27,-548 642.2,-545.45"/>
<polygon fill="black" stroke="black" points="642.58,-541.96 632.51,-545.27 642.45,-548.95 642.58,-541.96"/>
</g>
<!-- module.vpc.aws_subnet.Dev&#45;private&#45;&gt;module.vpc.aws_vpc.dev&#45;vpc -->
<g id="edge34" class="edge">
<title>module.vpc.aws_subnet.Dev&#45;private&#45;&gt;module.vpc.aws_vpc.dev&#45;vpc</title>
<path fill="none" stroke="black" d="M469.64,-539.97C393.17,-536.7 274.41,-533.2 171.5,-537 163.66,-537.29 155.46,-537.71 147.3,-538.21"/>
<polygon fill="black" stroke="black" points="147.11,-534.72 137.36,-538.86 147.57,-541.7 147.11,-534.72"/>
</g>
<!-- module.vpc.aws_subnet.Dev&#45;public&#45;&gt;module.vpc.aws_vpc.dev&#45;vpc -->
<g id="edge35" class="edge">
<title>module.vpc.aws_subnet.Dev&#45;public&#45;&gt;module.vpc.aws_vpc.dev&#45;vpc</title>
<path fill="none" stroke="black" d="M193.29,-556.04C178.08,-554.47 162.19,-552.83 147.21,-551.28"/>
<polygon fill="black" stroke="black" points="147.78,-547.82 137.47,-550.27 147.06,-554.78 147.78,-547.82"/>
</g>
</g>
</svg>
